# xmcd
#
# Track frame offsets:
#   150
#   12399
#   24236
#   36450
#   49690
#   61958
#   75924
#   93105
#   106912
#   123499
#   135030
#   151698
#   169697
#   185124
#   200038
#   212522
#   223561
#   239312
#   253605
#   271839
#
# Disc length: 3824 seconds
#
# Revision: 0
# Processed by: cddbd v1.5.1PL0 Copyright (c) Steve Scherf et al.
# Submitted via: uFREEDB ActiveX Control 1.5
#
DISCID=020eee14
DTITLE=Reliquias Sertanejas - As 20 Mais
DYEAR=1900
DGENRE=Country
TTITLE0=Arapua
TTITLE1=Baldrana Macia
TTITLE2=Caboclo Centenario
TTITLE3=Capricho de Destino
TTITLE4=Cenario Do Meu Sertao
TTITLE5=Chico Mineiro
TTITLE6=Couro De Boi
TTITLE7=Encantos da Natureza
TTITLE8=Joao Boiadeiro
TTITLE9=Joao de Barro
TTITLE10=Magoas de Boiadeiro
TTITLE11=Mae Amoroza
TTITLE12=Meu Reino Encantado
TTITLE13=Peito Sadio
TTITLE14=Poema de Cordas
TTITLE15=Quanta Saudade
TTITLE16=Relogio Quebrado
TTITLE17=Saudade Da Minha Terra
TTITLE18=Velha Porteira
TTITLE19=Viola Cabocla
EXTD=
EXTT0=
EXTT1=
EXTT2=
EXTT3=
EXTT4=
EXTT5=
EXTT6=
EXTT7=
EXTT8=
EXTT9=
EXTT10=
EXTT11=
EXTT12=
EXTT13=
EXTT14=
EXTT15=
EXTT16=
EXTT17=
EXTT18=
EXTT19=
PLAYORDER=
